<mxfile host="app.diagrams.net" modified="2023-10-17T07:35:36.394Z" agent="Mozilla/5.0 (Windows NT 10.0; Win64; x64) AppleWebKit/537.36 (KHTML, like Gecko) Chrome/117.0.0.0 Safari/537.36" etag="_cucftAXUDDIOnOH_sQ4" version="22.0.4" type="github">
  <diagram name="Page-1" id="5f0bae14-7c28-e335-631c-24af17079c00">
    <mxGraphModel dx="880" dy="472" grid="1" gridSize="10" guides="1" tooltips="1" connect="1" arrows="1" fold="1" page="1" pageScale="1" pageWidth="1100" pageHeight="850" background="none" math="0" shadow="0">
      <root>
        <mxCell id="0" />
        <mxCell id="1" parent="0" />
        <mxCell id="OqjMJjwXKW2wJm9HB_ns-32" style="edgeStyle=orthogonalEdgeStyle;rounded=0;orthogonalLoop=1;jettySize=auto;html=1;exitX=1;exitY=0.5;exitDx=0;exitDy=0;entryX=0;entryY=0.5;entryDx=0;entryDy=0;" edge="1" parent="1" source="OqjMJjwXKW2wJm9HB_ns-27" target="OqjMJjwXKW2wJm9HB_ns-29">
          <mxGeometry relative="1" as="geometry" />
        </mxCell>
        <mxCell id="OqjMJjwXKW2wJm9HB_ns-27" value="&lt;p style=&quot;margin:0px;margin-top:6px;text-align:center;&quot;&gt;&lt;b&gt;Product_list&lt;/b&gt;&lt;/p&gt;&lt;hr&gt;&lt;p style=&quot;margin:0px;margin-left:8px;&quot;&gt;+ products: Product&amp;nbsp;[ ]&lt;br&gt;&lt;br&gt;&lt;/p&gt;" style="align=left;overflow=fill;html=1;dropTarget=0;whiteSpace=wrap;" vertex="1" parent="1">
          <mxGeometry x="50" y="70" width="180" height="60" as="geometry" />
        </mxCell>
        <mxCell id="OqjMJjwXKW2wJm9HB_ns-28" value="" style="shape=component;jettyWidth=8;jettyHeight=4;" vertex="1" parent="OqjMJjwXKW2wJm9HB_ns-27">
          <mxGeometry x="1" width="20" height="20" relative="1" as="geometry">
            <mxPoint x="-24" y="4" as="offset" />
          </mxGeometry>
        </mxCell>
        <mxCell id="OqjMJjwXKW2wJm9HB_ns-46" style="edgeStyle=orthogonalEdgeStyle;rounded=0;orthogonalLoop=1;jettySize=auto;html=1;exitX=0.5;exitY=1;exitDx=0;exitDy=0;entryX=0.5;entryY=0;entryDx=0;entryDy=0;" edge="1" parent="1" source="OqjMJjwXKW2wJm9HB_ns-29" target="OqjMJjwXKW2wJm9HB_ns-43">
          <mxGeometry relative="1" as="geometry" />
        </mxCell>
        <mxCell id="OqjMJjwXKW2wJm9HB_ns-29" value="&lt;p style=&quot;margin:0px;margin-top:6px;text-align:center;&quot;&gt;&lt;b&gt;Product Detail&lt;/b&gt;&lt;/p&gt;&lt;hr&gt;&lt;p style=&quot;margin:0px;margin-left:8px;&quot;&gt;+ producto: Product&lt;/p&gt;" style="align=left;overflow=fill;html=1;dropTarget=0;whiteSpace=wrap;" vertex="1" parent="1">
          <mxGeometry x="370" y="70" width="180" height="60" as="geometry" />
        </mxCell>
        <mxCell id="OqjMJjwXKW2wJm9HB_ns-30" value="" style="shape=component;jettyWidth=8;jettyHeight=4;" vertex="1" parent="OqjMJjwXKW2wJm9HB_ns-29">
          <mxGeometry x="1" width="20" height="20" relative="1" as="geometry">
            <mxPoint x="-24" y="4" as="offset" />
          </mxGeometry>
        </mxCell>
        <mxCell id="OqjMJjwXKW2wJm9HB_ns-33" value="&lt;p style=&quot;margin:0px;margin-top:6px;text-align:center;&quot;&gt;&lt;/p&gt;&amp;nbsp; &amp;nbsp; &amp;nbsp; &amp;nbsp; &amp;nbsp; &amp;nbsp; product:Product [ ]&lt;hr&gt;&lt;p style=&quot;margin:0px;margin-left:8px;&quot;&gt;Listado de productos disponibles&lt;/p&gt;" style="align=left;overflow=fill;html=1;dropTarget=0;whiteSpace=wrap;" vertex="1" parent="1">
          <mxGeometry x="50" y="190" width="200" height="50" as="geometry" />
        </mxCell>
        <mxCell id="OqjMJjwXKW2wJm9HB_ns-34" value="" style="shape=component;jettyWidth=8;jettyHeight=4;" vertex="1" parent="OqjMJjwXKW2wJm9HB_ns-33">
          <mxGeometry x="1" width="20" height="20" relative="1" as="geometry">
            <mxPoint x="-24" y="4" as="offset" />
          </mxGeometry>
        </mxCell>
        <mxCell id="OqjMJjwXKW2wJm9HB_ns-42" style="edgeStyle=orthogonalEdgeStyle;rounded=0;orthogonalLoop=1;jettySize=auto;html=1;exitX=0.5;exitY=0;exitDx=0;exitDy=0;entryX=0.556;entryY=0.983;entryDx=0;entryDy=0;entryPerimeter=0;" edge="1" parent="1" source="OqjMJjwXKW2wJm9HB_ns-33" target="OqjMJjwXKW2wJm9HB_ns-27">
          <mxGeometry relative="1" as="geometry" />
        </mxCell>
        <mxCell id="OqjMJjwXKW2wJm9HB_ns-51" style="edgeStyle=orthogonalEdgeStyle;rounded=0;orthogonalLoop=1;jettySize=auto;html=1;exitX=0.5;exitY=1;exitDx=0;exitDy=0;entryX=0.5;entryY=0;entryDx=0;entryDy=0;" edge="1" parent="1" source="OqjMJjwXKW2wJm9HB_ns-43" target="OqjMJjwXKW2wJm9HB_ns-47">
          <mxGeometry relative="1" as="geometry" />
        </mxCell>
        <mxCell id="OqjMJjwXKW2wJm9HB_ns-43" value="&lt;p style=&quot;margin:0px;margin-top:6px;text-align:center;&quot;&gt;&lt;b&gt;Cart Service&lt;/b&gt;&lt;/p&gt;&lt;hr&gt;&lt;p style=&quot;margin:0px;margin-left:8px;&quot;&gt;&lt;br&gt;&lt;/p&gt;+ items: Product [ ]&lt;p style=&quot;margin:0px;margin-left:8px;&quot;&gt;&amp;nbsp;&lt;/p&gt;" style="align=left;overflow=fill;html=1;dropTarget=0;whiteSpace=wrap;" vertex="1" parent="1">
          <mxGeometry x="370" y="180" width="180" height="70" as="geometry" />
        </mxCell>
        <mxCell id="OqjMJjwXKW2wJm9HB_ns-44" value="" style="shape=component;jettyWidth=8;jettyHeight=4;" vertex="1" parent="OqjMJjwXKW2wJm9HB_ns-43">
          <mxGeometry x="1" width="20" height="20" relative="1" as="geometry">
            <mxPoint x="-24" y="4" as="offset" />
          </mxGeometry>
        </mxCell>
        <mxCell id="OqjMJjwXKW2wJm9HB_ns-47" value="&lt;p style=&quot;margin:0px;margin-top:6px;text-align:center;&quot;&gt;&lt;b&gt;Cart&lt;/b&gt;&lt;/p&gt;&lt;hr&gt;&lt;p style=&quot;margin:0px;margin-left:8px;&quot;&gt;+ items: Product [ ]&lt;br&gt;&lt;/p&gt;" style="align=left;overflow=fill;html=1;dropTarget=0;whiteSpace=wrap;" vertex="1" parent="1">
          <mxGeometry x="370" y="290" width="180" height="50" as="geometry" />
        </mxCell>
        <mxCell id="OqjMJjwXKW2wJm9HB_ns-48" value="" style="shape=component;jettyWidth=8;jettyHeight=4;" vertex="1" parent="OqjMJjwXKW2wJm9HB_ns-47">
          <mxGeometry x="1" width="20" height="20" relative="1" as="geometry">
            <mxPoint x="-24" y="4" as="offset" />
          </mxGeometry>
        </mxCell>
      </root>
    </mxGraphModel>
  </diagram>
</mxfile>
